<?xml version="1.0" encoding="iso-8859-1"?>
<!-- Generator: Adobe Illustrator 19.0.0, SVG Export Plug-In . SVG Version: 6.00 Build 0)  -->
<svg version="1.1" id="Capa_1" xmlns="http://www.w3.org/2000/svg" xmlns:xlink="http://www.w3.org/1999/xlink" x="0px" y="0px"
	 viewBox="0 0 384 384" style="enable-background:new 0 0 384 384;" xml:space="preserve">
<g>
	<g>
		<path d="M346.416,294.356c-0.12-0.64-0.264-1.264-0.456-1.88c-0.16-0.504-0.368-0.984-0.576-1.472
			c-0.24-0.552-0.448-1.112-0.752-1.632c-0.376-0.672-0.848-1.288-1.328-1.904c-0.4-0.504-0.808-0.976-1.264-1.432
			c-0.536-0.544-1.064-1.088-1.696-1.56l-0.416-0.312c-0.008-0.008-0.016-0.016-0.024-0.016l-122.52-92.176l123.04-92.44
			c0.88-0.664,1.68-1.4,2.384-2.192c0.048-0.056,0.08-0.128,0.136-0.184c0.64-0.744,1.224-1.528,1.704-2.36
			c0.08-0.136,0.12-0.28,0.192-0.416c0.424-0.776,0.808-1.568,1.096-2.392c0.056-0.16,0.072-0.336,0.12-0.496
			c0.256-0.816,0.48-1.64,0.6-2.48c0.04-0.264,0.016-0.536,0.04-0.8c0.072-0.752,0.144-1.504,0.104-2.256
			c-0.016-0.328-0.104-0.648-0.144-0.976c-0.08-0.696-0.136-1.392-0.304-2.072c-0.088-0.36-0.256-0.696-0.368-1.056
			c-0.208-0.64-0.392-1.28-0.68-1.904c-0.168-0.352-0.416-0.68-0.608-1.024c-0.32-0.576-0.608-1.16-1.016-1.696
			c-0.024-0.032-0.048-0.056-0.072-0.088C307.816,28.844,250.688,0.012,190.76,0.012C85.576,0.012,0,86.124,0,191.98
			c0,105.856,85.576,192.008,190.76,192.008c60.808,0,116.512-28.144,152.832-77.208c0.008-0.008,0.008-0.016,0.016-0.024
			c1.784-2.408,2.872-5.32,3.072-8.496c0.008-0.104,0.032-0.216,0.032-0.32c0.008-0.232,0.064-0.448,0.064-0.68
			c0-0.464-0.128-0.888-0.168-1.344C346.56,295.388,346.512,294.876,346.416,294.356z M190.76,352.004
			C103.216,352.004,32,280.212,32,191.972c0-88.224,71.216-159.984,158.76-159.984c45.288,0,87.168,18.752,117.128,51.952
			l-126.736,95.224c-4.024,3.024-6.392,7.76-6.392,12.792c0,5.024,2.36,9.768,6.384,12.792l126.664,95.304
			C277.856,333.252,235.992,352.004,190.76,352.004z"/>
	</g>
</g>
<g>
	<g>
		<path d="M137.976,78.228c-23.72,0-43.024,19.384-43.024,43.216c0,23.832,19.296,43.216,43.024,43.216
			c23.728,0,43.024-19.384,43.024-43.216C181,97.612,161.696,78.228,137.976,78.228z M137.976,132.668
			c-6.08,0-11.024-5.032-11.024-11.216s4.944-11.216,11.024-11.216S149,115.268,149,121.452S144.056,132.668,137.976,132.668z"/>
	</g>
</g>
<g>
	<g>
		<path d="M340.968,148.772c-23.728,0-43.024,19.384-43.024,43.216c0,23.832,19.296,43.216,43.024,43.216
			c23.728,0,43.032-19.384,43.032-43.216C384,168.156,364.696,148.772,340.968,148.772z M340.968,203.204
			c-6.08,0-11.024-5.032-11.024-11.216c0-6.184,4.944-11.216,11.024-11.216c6.088,0,11.032,5.032,11.032,11.216
			C352,198.172,347.056,203.204,340.968,203.204z"/>
	</g>
</g>
<g>
</g>
<g>
</g>
<g>
</g>
<g>
</g>
<g>
</g>
<g>
</g>
<g>
</g>
<g>
</g>
<g>
</g>
<g>
</g>
<g>
</g>
<g>
</g>
<g>
</g>
<g>
</g>
<g>
</g>
</svg>
