<?xml version="1.0" standalone="no"?><!-- Generator: Gravit.io --><svg xmlns="http://www.w3.org/2000/svg" xmlns:xlink="http://www.w3.org/1999/xlink" style="isolation:isolate" viewBox="0 0 400 400" width="400" height="400"><defs><clipPath id="_clipPath_nbkR9ZDVzXkQBfOKQ3b0rN1DBcRGzl4e"><rect width="400" height="400"/></clipPath></defs><g clip-path="url(#_clipPath_nbkR9ZDVzXkQBfOKQ3b0rN1DBcRGzl4e)"><g id="OPAOPA"><rect x="330" y="260" width="20" height="20" transform="matrix(1,0,0,1,0,0)" fill="rgb(0,0,0)"/><rect x="230" y="280" width="100" height="20" transform="matrix(1,0,0,1,0,0)" fill="rgb(0,0,0)"/><rect x="230" y="200" width="120" height="20" transform="matrix(1,0,0,1,0,0)" fill="rgb(0,0,0)"/><rect x="229.782" y="240" width="120.218" height="20" transform="matrix(1,0,0,1,0,0)" fill="rgb(0,0,0)"/><rect x="130" y="300" width="100" height="20" transform="matrix(1,0,0,1,0,0)" fill="rgb(0,0,0)"/><rect x="290" y="120" width="20" height="20" transform="matrix(1,0,0,1,0,0)" fill="rgb(0,0,0)"/><rect x="350" y="220" width="20" height="20" transform="matrix(1,0,0,1,0,0)" fill="rgb(0,0,0)"/><rect x="270" y="100" width="20" height="20" transform="matrix(1,0,0,1,0,0)" fill="rgb(0,0,0)"/><rect x="170" y="100" width="20" height="100" transform="matrix(1,0,0,1,0,0)" fill="rgb(0,0,0)"/><rect x="90" y="120" width="20" height="20" transform="matrix(1,0,0,1,0,0)" fill="rgb(0,0,0)"/><rect x="50" y="140" width="80" height="20" transform="matrix(1,0,0,1,0,0)" fill="rgb(0,0,0)"/><rect x="130" y="160" width="20" height="20" transform="matrix(1,0,0,1,0,0)" fill="rgb(0,0,0)"/><rect x="210" y="220" width="20" height="20" transform="matrix(1,0,0,1,0,0)" fill="rgb(0,0,0)"/><rect x="189.782" y="200" width="20.218" height="20" transform="matrix(1,0,0,1,0,0)" fill="rgb(0,0,0)"/><rect x="190" y="100" width="20" height="100" transform="matrix(1,0,0,1,0,0)" fill="rgb(255,255,0)"/><rect x="280" y="170" width="20" height="120" transform="matrix(0,-1,1,0,60,520)" fill="rgb(255,255,0)"/><rect x="210" y="200" width="20" height="20" transform="matrix(0,-1,1,0,10,430)" fill="rgb(255,255,0)"/><rect x="110" y="120" width="20" height="20" transform="matrix(0,-1,1,0,-10,250)" fill="rgb(255,0,0)"/><rect x="170" y="200" width="20" height="20" transform="matrix(0,-1,1,0,-30,390)" fill="rgb(0,170,85)"/><rect x="90" y="200" width="20" height="60" transform="matrix(0,-1,1,0,-130,330)" fill="rgb(139,139,139)"/><rect x="50" y="200" width="20" height="20" transform="matrix(0,-1,1,0,-150,270)" fill="rgb(139,139,139)"/><rect x="200" y="150" width="80" height="20" transform="matrix(0,-1,1,0,80,400)" fill="rgb(157,206,255)"/><rect x="230" y="160" width="60" height="20" transform="matrix(0,-1,1,0,90,430)" fill="rgb(157,206,255)"/><rect x="250" y="160" width="60" height="20" transform="matrix(0,-1,1,0,110,450)" fill="rgb(217,236,255)"/><rect x="250" y="120" width="20" height="20" transform="matrix(0,-1,1,0,130,390)" fill="rgb(217,236,255)"/><rect x="230" y="100" width="20" height="20" transform="matrix(0,-1,1,0,130,350)" fill="rgb(217,236,255)"/><rect x="250" y="100" width="20" height="20" transform="matrix(0,-1,1,0,150,370)" fill="rgb(239,247,255)"/><rect x="270" y="120" width="20" height="20" transform="matrix(0,-1,1,0,150,410)" fill="rgb(239,247,255)"/><rect x="270" y="160" width="60" height="20" transform="matrix(0,-1,1,0,130,470)" fill="rgb(239,247,255)"/><rect x="170" y="200" width="20" height="60" transform="matrix(0,-1,1,0,-50,410)" fill="rgb(0,170,85)"/><rect x="160" y="210" width="40" height="100" transform="matrix(0,-1,1,0,-80,440)" fill="rgb(0,170,85)"/><rect x="270" y="220" width="20" height="100" transform="matrix(0,-1,1,0,10,550)" fill="rgb(23,130,77)"/><rect x="170" y="240" width="20" height="100" transform="matrix(0,-1,1,0,-110,470)" fill="rgb(23,130,77)"/><rect x="100" y="250" width="20" height="40" transform="matrix(0,-1,1,0,-160,380)" fill="rgb(23,130,77)"/><rect x="120" y="130" width="40" height="20" transform="matrix(0,-1,1,0,0,280)" fill="rgb(255,0,0)"/><rect x="120" y="130" width="80" height="20" transform="matrix(0,-1,1,0,20,300)" fill="rgb(255,0,0)"/><rect x="130" y="220" width="20" height="20" transform="matrix(1,0,0,1,0,0)" fill="rgb(0,0,0)"/><rect x="50" y="220" width="20" height="20" transform="matrix(1,0,0,1,0,0)" fill="rgb(0,0,0)"/><rect x="30" y="160" width="20" height="60" transform="matrix(1,0,0,1,0,0)" fill="rgb(0,0,0)"/><rect x="90" y="280" width="40" height="20" transform="matrix(1,0,0,1,0,0)" fill="rgb(0,0,0)"/><rect x="90" y="240" width="40" height="20" transform="matrix(1,0,0,1,0,0)" fill="rgb(0,0,0)"/><rect x="150" y="180" width="20" height="40" transform="matrix(1,0,0,1,0,0)" fill="rgb(0,0,0)"/><rect x="70" y="240" width="20" height="40" transform="matrix(1,0,0,1,0,0)" fill="rgb(0,0,0)"/><rect x="110" y="100" width="40" height="20" transform="matrix(1,0,0,1,0,0)" fill="rgb(0,0,0)"/><rect x="210" y="100" width="20" height="100" transform="matrix(1,0,0,1,0,0)" fill="rgb(0,0,0)"/><rect x="150" y="80" width="120" height="20" transform="matrix(1,0,0,1,0,0)" fill="rgb(0,0,0)"/><rect x="310" y="140" width="20" height="60" transform="matrix(1,0,0,1,0,0)" fill="rgb(0,0,0)"/></g></g></svg>