<?xml version="1.0" encoding="UTF-8" standalone="no"?>
<!-- Created with Inkscape (http://www.inkscape.org/) -->

<svg
   xmlns:dc="http://purl.org/dc/elements/1.1/"
   xmlns:cc="http://creativecommons.org/ns#"
   xmlns:rdf="http://www.w3.org/1999/02/22-rdf-syntax-ns#"
   xmlns:svg="http://www.w3.org/2000/svg"
   xmlns="http://www.w3.org/2000/svg"
   xmlns:sodipodi="http://sodipodi.sourceforge.net/DTD/sodipodi-0.dtd"
   xmlns:inkscape="http://www.inkscape.org/namespaces/inkscape"
   width="180"
   height="180"
   viewBox="0 0 47.624999 47.624999"
   version="1.1"
   id="svg8793"
   inkscape:version="0.92.2 (5c3e80d, 2017-08-06)"
   sodipodi:docname="top-scroll-2.svg"
   inkscape:export-filename="D:\IMMAGINI\vectorial\top-scroll-32x32.png"
   inkscape:export-xdpi="17.066668"
   inkscape:export-ydpi="17.066668">
  <defs
     id="defs8787">
    <marker
       id="Arrow2Sstart"
       inkscape:isstock="true"
       inkscape:stockid="Arrow2Sstart"
       orient="auto"
       refX="0"
       refY="0"
       style="overflow:visible">
      <path
         d="M 8.72,4.03 -2.21,0.02 8.72,-4 c -1.75,2.37 -1.74,5.62 0,8.03 z"
         id="Arrow2SstartPath"
         style="fill:#000000;fill-opacity:1;stroke:#000000;stroke-opacity:1"
         transform="matrix(0.3,0,0,0.3,-0.69,0)"
         inkscape:connector-curvature="0" />
    </marker>
    <marker
       id="Arrow2Send"
       inkscape:isstock="true"
       inkscape:stockid="Arrow2Send"
       orient="auto"
       refX="0"
       refY="0"
       style="overflow:visible">
      <path
         d="M 8.72,4.03 -2.21,0.02 8.72,-4 c -1.75,2.37 -1.74,5.62 0,8.03 z"
         id="Arrow2SendPath"
         style="fill:#000000;fill-opacity:1;stroke:#000000;stroke-opacity:1"
         transform="matrix(-0.3,0,0,-0.3,0.69,0)"
         inkscape:connector-curvature="0" />
    </marker>
  </defs>
  <sodipodi:namedview
     id="base"
     pagecolor="#ffffff"
     bordercolor="#666666"
     borderopacity="1.0"
     inkscape:pageopacity="0"
     inkscape:pageshadow="2"
     inkscape:zoom="1"
     inkscape:cx="-55.428262"
     inkscape:cy="142.23863"
     inkscape:document-units="mm"
     inkscape:current-layer="g9437"
     showgrid="false"
     inkscape:snap-page="true"
     inkscape:snap-to-guides="true"
     units="px"
     showguides="true"
     inkscape:guide-bbox="true"
     inkscape:snap-bbox="true"
     inkscape:bbox-paths="true"
     inkscape:measure-start="1187.71,600"
     inkscape:measure-end="0,0"
     inkscape:window-width="1920"
     inkscape:window-height="1017"
     inkscape:window-x="-8"
     inkscape:window-y="-8"
     inkscape:window-maximized="1"
     inkscape:bbox-nodes="true"
     inkscape:snap-bbox-edge-midpoints="true"
     inkscape:snap-bbox-midpoints="true"
     inkscape:object-paths="true"
     inkscape:snap-intersection-paths="true"
     inkscape:snap-midpoints="true"
     inkscape:snap-smooth-nodes="true"
     inkscape:snap-object-midpoints="true"
     inkscape:snap-center="true"
     inkscape:showpageshadow="false"
     inkscape:snap-grids="true">
    <inkscape:grid
       type="xygrid"
       id="grid3879"
       visible="true" />
  </sodipodi:namedview>
  <metadata
     id="metadata8790">
    <rdf:RDF>
      <cc:Work
         rdf:about="">
        <dc:format>image/svg+xml</dc:format>
        <dc:type
           rdf:resource="http://purl.org/dc/dcmitype/StillImage" />
        <dc:title></dc:title>
      </cc:Work>
    </rdf:RDF>
  </metadata>
  <g
     inkscape:label="Livello 1"
     inkscape:groupmode="layer"
     id="layer1"
     transform="translate(0,-249.375)">
    <g
       id="g9437"
       transform="translate(2.0412023,1.5625384)">
      <path
         style="opacity:1;fill:#000000;fill-opacity:1;stroke:none;stroke-width:14.9952755;stroke-linecap:square;stroke-linejoin:round;stroke-miterlimit:4;stroke-dasharray:none;stroke-dashoffset:0;stroke-opacity:1;paint-order:stroke markers fill"
         d="M 30 0 A 29.999974 30.000019 0 0 0 0 30 L 0 90 L 0 150 A 29.999974 30.000019 0 0 0 30 180 A 29.999974 30.000019 0 0 0 30.037109 180 L 90 180 L 150 180 A 29.999974 30.000019 0 0 0 150.03711 180 A 29.999974 30.000019 0 0 0 180 150 L 180 90 L 180 30 A 29.999974 30.000019 0 0 0 150.03711 0 L 150 0 L 90 0 L 30.037109 0 A 29.999974 30.000019 0 0 0 30 0 z M 90.001953 42.751953 L 109.89453 62.644531 L 164.60352 117.35547 L 144.70898 137.24805 L 90.001953 82.541016 L 35.291016 137.24805 L 15.398438 117.35547 L 70.105469 62.644531 L 90.001953 42.751953 z "
         id="path7061"
         transform="matrix(0.26458333,0,0,0.26458333,-2.0412023,247.81246)" />
    </g>
  </g>
</svg>
